# xmcd
# 
# Track frame offsets:
#     150
#     14392
#     22452
#     36851
#     52142
#     62108
#     72991
#     84961
#     97641
#     112393
#     122924
#     130762
#     139961
#     152033
#     166191
#     174441
# 
# Disc length: 2525
# 
# Revision: 0
# Processed by: cddbd v1.5.2PL0 Copyright (c) Steve Scherf et al.
# Submitted via: fre:ac v1.0.31
# 
DISCID=e109db10
DTITLE=Klaus Grabenhorst - Die Freunde von Georges
DYEAR=2002
DGENRE=Folk
TTITLE0=Georges Brassens and Co
TTITLE1=Georges Brassens - Das Massaker
TTITLE2=Georges Brassens - Margot
TTITLE3=Georges Brassens - Penelope
TTITLE4=Georges Brassens - Das Fünf-Mark-Mädchen
TTITLE5=Georges Brassens - Der schlechte Ruf
TTITLE6=Georges Brassens - Unkraut
TTITLE7=Georges Brassens - Glückliche Liebe
TTITLE8=Georges Brassens - Neben meiner Eiche
TTITLE9=Georges Brassens - Die jungen Paare auf den Bänken
TTITLE10=Georges Brassens - Der Wind
TTITLE11=Georges Brassens - Arsch bleibt Arsch
TTITLE12=Georges Brassens - Die Freunde von Georges
TTITLE13=Georges Brassens - Eines Tages warst Du weg
TTITLE14=Georges Brassens - Dieser kleine Weg
TTITLE15=Georges Brassens - Für Georges Brassens
EXTD=
EXTT0=
EXTT1=
EXTT2=
EXTT3=
EXTT4=
EXTT5=
EXTT6=
EXTT7=
EXTT8=
EXTT9=
EXTT10=
EXTT11=
EXTT12=
EXTT13=
EXTT14=
EXTT15=
PLAYORDER=
